<svg width="160" height="160" fill="none" xmlns="http://www.w3.org/2000/svg"><path fill-rule="evenodd" clip-rule="evenodd" d="M112 4a2 2 0 110-4 2 2 0 010 4zm17 9a3 3 0 106 0 3 3 0 00-6 0zm29 10a1 1 0 102 0 1 1 0 00-2 0zm-53-7.5a2.5 2.5 0 105 0 2.5 2.5 0 00-5 0zm1 10.5a4 4 0 110-8 4 4 0 010 8zm-3 6.5a4.5 4.5 0 109 0 4.5 4.5 0 00-9 0zm12.5 8.5a2.5 2.5 0 110-5 2.5 2.5 0 010 5zm5.5-5.5a1.5 1.5 0 103 0 1.5 1.5 0 00-3 0zM120 47a3 3 0 110-6 3 3 0 010 6zm2 3.5a4.5 4.5 0 109 0 4.5 4.5 0 00-9 0zm9 24.5a3 3 0 110-6 3 3 0 010 6zm7 2a3 3 0 106 0 3 3 0 00-6 0zm7.5 7a1.5 1.5 0 110-3 1.5 1.5 0 010 3zm1.5 7.5a1.5 1.5 0 103 0 1.5 1.5 0 00-3 0zm0 13.5a3 3 0 110-6 3 3 0 010 6zm-10-21.5a2.5 2.5 0 105 0 2.5 2.5 0 00-5 0zm-5.5 1.5a3.5 3.5 0 110-7 3.5 3.5 0 010 7zm-6.5 7a5 5 0 1010 0 5 5 0 00-10 0zm12.5 17a2.5 2.5 0 110-5 2.5 2.5 0 010 5zm-3.5 4a3 3 0 106 0 3 3 0 00-6 0zm4.5 12a3.5 3.5 0 110-7 3.5 3.5 0 010 7zm-12.5-7a3 3 0 106 0 3 3 0 00-6 0zm-1.5 8a1.5 1.5 0 11.001-3.001A1.5 1.5 0 01124.5 126zM96 132a2 2 0 104 0 2 2 0 00-4 0zm4-2a3 3 0 110-6 3 3 0 010 6zm3 3.5a3.5 3.5 0 107 0 3.5 3.5 0 00-7 0zm-18.5.5a3.5 3.5 0 110-7 3.5 3.5 0 010 7zM60 131.5a5.5 5.5 0 1011 0 5.5 5.5 0 00-11 0zM43 45a5 5 0 110-10 5 5 0 010 10zM20 64.5a6.5 6.5 0 1013 0 6.5 6.5 0 00-13 0zM34.5 119a6.5 6.5 0 110-13 6.5 6.5 0 010 13zm14.5 6.5a4.5 4.5 0 109 0 4.5 4.5 0 00-9 0zm6 11.5a3 3 0 110-6 3 3 0 010 6zm-3 4.5a2.5 2.5 0 105 0 2.5 2.5 0 00-5 0zm-5-6.5a3 3 0 110-6 3 3 0 010 6zm-1 4a2 2 0 104 0 2 2 0 00-4 0zm55 4a2 2 0 110-4 2 2 0 010 4zm-11-13.5a2.5 2.5 0 105 0 2.5 2.5 0 00-5 0zM80.5 151a1.5 1.5 0 110-3 1.5 1.5 0 010 3zM66 158.5a1.5 1.5 0 103 0 1.5 1.5 0 00-3 0zm7.5-19.5a1.5 1.5 0 110-3 1.5 1.5 0 010 3zm1.5-9.5a1.5 1.5 0 103 0 1.5 1.5 0 00-3 0zM60.5 141a1.5 1.5 0 110-3 1.5 1.5 0 010 3zM41 138.5a1.5 1.5 0 103 0 1.5 1.5 0 00-3 0zM3 113a1 1 0 110-2 1 1 0 010 2zm1-91a1 1 0 102 0 1 1 0 00-2 0zm31 22a1 1 0 110-2 1 1 0 010 2zM8 112.5a1.5 1.5 0 103 0 1.5 1.5 0 00-3 0zM21 90a1 1 0 110-2 1 1 0 010 2zM11 74.5a1.5 1.5 0 103 0 1.5 1.5 0 00-3 0zM28.5 46a1.5 1.5 0 110-3 1.5 1.5 0 010 3zM38 31.5a1.5 1.5 0 103 0 1.5 1.5 0 00-3 0zM43.5 152a1.5 1.5 0 110-3 1.5 1.5 0 010 3zm61.5-28.5a2.5 2.5 0 105 0 2.5 2.5 0 00-5 0zm11.5 1.5a5.5 5.5 0 110-11 5.5 5.5 0 110 11zm-5.5 17.5a2.5 2.5 0 105 0 2.5 2.5 0 00-5 0zm36-7.5a3 3 0 110-6 3 3 0 010 6zm3-9.5a1.5 1.5 0 103.001-.001 1.5 1.5 0 00-3.001.001zM127 113a7 7 0 110-14 7 7 0 010 14zm10-24a2 2 0 104 0 2 2 0 00-4 0zM93.5 32a6.5 6.5 0 110-13 6.5 6.5 0 010 13zM88 14a3 3 0 106 0 3 3 0 00-6 0zm-3.5 7a1.5 1.5 0 110-3 1.5 1.5 0 010 3zM78 26a3 3 0 106 0 3 3 0 00-6 0zm-1.5-3a4.5 4.5 0 110-9 4.5 4.5 0 010 9zM49 34.5a3.5 3.5 0 107 0 3.5 3.5 0 00-7 0zm6.5-6.5a2.5 2.5 0 110-5 2.5 2.5 0 010 5zM43 31a2 2 0 104 0 2 2 0 00-4 0zm-9-13a2 2 0 110-4 2 2 0 010 4zm-6 16a2 2 0 104 0 2 2 0 00-4 0zm6 21a4 4 0 110-8 4 4 0 010 8zm-13-5a3 3 0 106 0 3 3 0 00-6 0zm-4 2a3 3 0 110-6 3 3 0 010 6zm-5 5a4 4 0 108 0 4 4 0 00-8 0zm1.5 14a4.5 4.5 0 110-9 4.5 4.5 0 010 9zM17 82a3 3 0 106 0 3 3 0 00-6 0zm10-2a3 3 0 110-6 3 3 0 010 6zm-10-6.5a2.5 2.5 0 105 0 2.5 2.5 0 00-5 0zM27.5 90a3.5 3.5 0 110-7 3.5 3.5 0 010 7zM24 99a5 5 0 1010 0 5 5 0 00-10 0zm-3.5 4a2.5 2.5 0 110-5 2.5 2.5 0 010 5zM9 108.5a2.5 2.5 0 105 0 2.5 2.5 0 00-5 0zM35.5 136a2.5 2.5 0 110-5 2.5 2.5 0 010 5zM19 107.5a3.5 3.5 0 107 0 3.5 3.5 0 00-7 0zM8 74a2 2 0 110-4 2 2 0 010 4zM0 57a3 3 0 106 0 3 3 0 00-6 0zm71-46a3 3 0 110-6 3 3 0 010 6zm-2 16.5a3.5 3.5 0 107 0 3.5 3.5 0 00-7 0zM67.5 23a2.5 2.5 0 110-5 2.5 2.5 0 010 5zm-.5-8.5a1.5 1.5 0 103 0 1.5 1.5 0 00-3 0zM113 27a2 2 0 110-4 2 2 0 010 4zm13 13a3 3 0 106 0 3 3 0 00-6 0zm11 1a2 2 0 110-4 2 2 0 010 4zm-5 5.5a3.5 3.5 0 107 0 3.5 3.5 0 00-7 0zm12 5.5a3 3 0 110-6 3 3 0 010 6zm2 10.5a2.5 2.5 0 105 0 2.5 2.5 0 00-5 0zM156.5 73a1.5 1.5 0 110-3 1.5 1.5 0 010 3z" fill="#99C9FF"/><path fill-rule="evenodd" clip-rule="evenodd" d="M80 120.8c22.533 0 40.8-18.267 40.8-40.8 0-22.533-18.267-40.8-40.8-40.8-22.533 0-40.8 18.267-40.8 40.8 0 22.533 18.267 40.8 40.8 40.8z" fill="#3385FF"/><path fill-rule="evenodd" clip-rule="evenodd" d="M89.7 62.07l8.212-8.248a31.459 31.459 0 00-18.055-5.666c-17.508 0-31.7 14.257-31.7 31.844 0 17.587 14.192 31.844 31.7 31.844a31.46 31.46 0 0018.055-5.666L89.7 97.929a20.214 20.214 0 01-9.843 2.542c-11.255 0-20.38-9.165-20.38-20.471 0-11.306 9.125-20.471 20.38-20.471 3.57 0 6.925.922 9.843 2.542zM111.844 80a31.01 31.01 0 00-5.673-17.912l-8.259 8.147A19.912 19.912 0 01100.457 80c0 3.541-.923 6.87-2.545 9.766l8.259 8.146A31.01 31.01 0 00111.844 80z" fill="#fff"/></svg>